<svg xmlns="http://www.w3.org/2000/svg" width="512" height="512" viewBox="0 0 512 512">
  <defs>
    <linearGradient id="bg" x1="0" y1="0" x2="1" y2="1">
      <stop offset="0%" stop-color="#4f46e5"/>
      <stop offset="100%" stop-color="#818cf8"/>
    </linearGradient>
    <linearGradient id="ai" x1="0" y1="0" x2="1" y2="1">
      <stop offset="0%" stop-color="#10b981"/>
      <stop offset="100%" stop-color="#34d399"/>
    </linearGradient>
  </defs>
  <!-- Background circle -->
  <circle cx="256" cy="256" r="240" fill="url(#bg)"/>
  <circle cx="256" cy="256" r="230" fill="#1e293b"/>
  <!-- Chat bubble -->
  <path d="M256 100c-72 0-130 52-130 116 0 36 18 69 48 91l-12 36 44-24c16 5 33 8 50 8 72 0 130-52 130-116s-58-116-130-116z" fill="none" stroke="white" stroke-width="12" stroke-linecap="round" stroke-linejoin="round"/>
  <!-- AI dots -->
  <circle cx="210" cy="216" r="10" fill="url(#ai)"/>
  <circle cx="256" cy="216" r="10" fill="url(#ai)"/>
  <circle cx="302" cy="216" r="10" fill="url(#ai)"/>
  <!-- Sparkle -->
  <path d="M380 140l8 20 20 8-20 8-8 20-8-20-20-8 20-8z" fill="#fbbf24"/>
  <path d="M400 360l6 14 14 6-14 6-6 14-6-14-14-6 14-6z" fill="#fbbf24"/>
</svg>
